<svg xmlns="http://www.w3.org/2000/svg" width="451" height="649" overflow="hidden"><defs><clipPath id="a"><path d="M525 2922h451v649H525z"/></clipPath></defs><g fill-rule="evenodd" clip-path="url(#a)" transform="translate(-525 -2922)"><path fill="#E60012" d="M903.209 3180.75c13.775-24.67 21.056-53.03 21.056-83.53 0-95.85-77.615-174.22-173.373-174.22-96.43 0-174.829 78.37-174.829 174.22 0 30.5 7.28 58.86 21.055 83.53C552.88 3221.44 526 3280.19 526 3344.88 526 3468.99 626.126 3570 750.892 3570 874.874 3570 975 3469.1 975 3344.88c0-64.69-27.552-123.44-71.791-164.13Z"/><path fill="#FFF100" d="M827.514 3187.91c26.08-21.76 42.087-54.52 42.087-90.76 0-65.41-53.617-119.15-118.873-119.15-65.929 0-119.657 53.74-119.657 119.15 0 36.35 16.678 69 42.087 90.76-57.981 29.06-97.158 87.96-97.158 156.96 0 96.6 78.241 175.13 174.728 175.13C846.43 3520 924 3441.58 924 3344.87c0-69-38.505-127.9-96.486-156.96Z"/></g></svg>